<svg id="Layer_1" data-name="Layer 1" xmlns="http://www.w3.org/2000/svg" viewBox="0 0 1080 1080"><path d="M159.5,616.15q-34.75,0-69.5,0c-5.15,0-10.3.23-15.46.16-3.45,0-4.84-1.91-4.82-5.48q.16-32.25,0-64.5c0-3.35.93-4.68,4.53-4.67q65.24.15,130.48,0c5.16,0,5.91,3.53,6.8,6.91.18.7-2.35,3-3.73,3.06-5.63.35-11.3.14-16.95.15-26.83,0-53.66.13-80.49,0-3.81,0-5.49,1-5.33,5a170,170,0,0,1,0,17.49c-.3,4.78,1.64,5.86,6.07,5.85,33.67-.14,67.33,0,101,0,13.7,0,13.8-.06,20,12,2.8,5.46,5.22,11.14,7.57,16.81,2,4.88.13,7.3-5.61,7.31q-37.25.06-74.49,0Z"/><path d="M275.65,530.25c-11.47,0-22.94,0-34.4-.08a4,4,0,0,1-2.94-1.88c-4.86-9.8-9.56-19.68-14.29-29.54-.72-1.5-1.89-3-1.94-4.56-.23-7.14-4.85-6.92-10.12-6.91q-67.69.2-135.38.07c-6.71,0-6.73,0-6.75-6.5,0-8,.19-16-.07-24-.14-4.34,1.38-5.89,5.74-5.84,14.81.17,29.64,0,44.46,0,38.46,0,76.93.07,115.4-.12,4.71,0,7.28,1.51,9.17,5.74,4.25,9.55,9,18.86,13.36,28.36,4.88,10.65,9.56,21.4,14.31,32.12,1.73,3.92,3.4,7.87,5.1,11.8Z"/><path d="M919.18,521.51c-15.32,9-31.52,7.45-41.75-4-8.86-9.94-9.64-26.23-1.78-37.08,9.32-12.89,24.53-15.08,44.14-6.16-.17-6.1,4.12-5.21,7.93-5.17,11.43.12,10.18-1.19,10.18,10.14,0,14.82.55,29.7-.48,44.46-1.3,18.65-9.54,26.72-28,29.11a55.12,55.12,0,0,1-29.75-4.49,62.93,62.93,0,0,1-6.32-3.75l7-12.91c1.45.69,2.63,1.16,3.71,1.79,7.36,4.32,15.37,5.33,23.65,4.25C915.74,536.63,920,530.36,919.18,521.51Zm-15-37.71c-9.36.05-15.2,5.47-15.19,14.12s6.42,14.58,15.61,14.41c8.84-.16,15.21-6.3,15.12-14.59C919.62,489.3,913.44,483.76,904.17,483.8Z"/><path d="M501.24,497.73c-8.32,0-16.1-.11-23.87,0-14.43.25-12.1-2.54-12.41,12.86-.07,3.26,1.13,4.35,4.36,4.3,11-.14,22,.07,33-.11,3.77-.06,5.59.94,5.22,5-.29,3.25-.06,6.55-.06,10.06-2.13.16-3.59.36-5,.36-17.15,0-34.3-.08-51.44.09-3.82,0-5.23-1-5.21-5q.25-34.71,0-69.42c0-4.08,1.5-5.1,5.27-5.07q25,.21,50,0c3.69,0,5.44.83,5.3,5-.4,12.55,1.44,10.26-10.14,10.44q-13.49.19-27,0c-2.93,0-4.08.84-4.23,3.93-.59,12.47-.69,12.47,11.63,12.47,6.83,0,13.66.14,20.48-.06,3.32-.09,4.44,1.16,4.24,4.36S501.24,493.58,501.24,497.73Z"/><path d="M355.08,529.64c-.07-.26-.2-.46-.15-.58,3.46-8.54,6.8-17.13,10.42-25.59,4.28-10,8.73-19.92,13.23-29.83,3.16-6.94,6.37-13.88,9.92-20.62.64-1.22,3.05-2.09,4.66-2.12,9.81-.21,19.64-.21,29.45-.1,4.53,0,5.51,1.48,3.68,5.54-2.17,4.82-4.74,9.47-7.1,14.21a14.39,14.39,0,0,0-1.33,3.18c-3.25,14.09-11.93,25.74-17.31,38.87-1.93,4.69-3.53,9.52-5.68,14.1-.7,1.49-2.66,3.37-4.08,3.4-11.47.25-23,.11-34.44,0A3.69,3.69,0,0,1,355.08,529.64Z"/><path d="M650,530.32v-84c5.33,0,10.45-.24,15.52.2,1,.09,2.44,2.79,2.49,4.33.26,7.47.12,15,.12,23.26,1.72-.92,2.92-1.53,4.1-2.19,19.46-10.84,39.82.88,40,23.06.08,10.33-.07,20.66.07,31,0,3.15-.9,4.33-4.23,4.43-14.24.39-14.24.5-14.24-13.89,0-6.33.06-12.66,0-19-.1-8.39-3.92-12.91-11.06-13.24-7.85-.37-14.08,4.82-14.4,12.73-.38,9.32-.33,18.66-.11,28,.1,4.1-1.14,5.72-5.35,5.4S654.61,530.32,650,530.32Z"/><path d="M352,530.23c-12.54,0-24.33.12-36.11-.17-1.43,0-3.4-2-4.09-3.6-1.86-4.21-2.85-8.81-4.75-13-3.91-8.61-8.36-17-12.22-25.62-.95-2.12-1.34-5.25-.48-7.28,3.29-7.79,7.29-15.29,10.83-23,1.52-3.3,2.42-6.89,3.89-10.22.55-1.23,1.86-2.81,2.93-2.91s2.41,1.51,3,2.69c4.2,7.91,8.5,15.79,12.28,23.91q9,19.29,17.31,38.9C347.33,516.22,349.34,522.78,352,530.23Z"/><path d="M320,542.11h66c.18.53.32.73.27.85-4.16,10.24-8.22,20.52-12.54,30.7-2,4.71-4.59,9.17-6.7,13.84-3.75,8.35-7.28,16.79-11,25.15-1.48,3.33-3.85,2.73-5.12.17-2.62-5.29-4.61-10.89-7-16.3-2.94-6.65-6.08-13.2-9-19.84-3.95-8.93-7.8-17.89-11.68-26.85C322.17,547.44,321.19,545,320,542.11Z"/><path d="M968.19,505.22c4.29,12.39,16.89,14.42,31.83,5.67l9.29,10c-5.07,6.58-12,9.34-19.46,9.92a54.19,54.19,0,0,1-17.74-1.3c-16.59-4.35-25.31-19.26-22.21-36.59,2.68-15,17.37-25.79,33.46-24.59,18.46,1.37,29.66,12.88,30.2,30.65.14,4.53-.91,6.5-6,6.33-11.14-.38-22.3-.12-33.45-.12Zm.39-11.73h26.93c-1.48-7.31-7.31-11.64-14.46-11.15S969.1,487.08,968.58,493.49Z"/><path d="M765.18,530.31c-.29-2-.49-3.45-.77-5.43-7.91,6.92-16.89,7.68-26.3,5.25-9-2.32-14.5-9.48-14.33-18s5.05-14.39,14.58-16.41c5.32-1.13,10.87-1.18,16.33-1.56,2.77-.19,5.56,0,8.35,0-.44-7.11-3.81-11-10.47-10.67s-13.48,2.19-20.93,3.5a24.44,24.44,0,0,1-1.33-2.21c-5.17-9.84-5-11.21,6.18-13.74a78.17,78.17,0,0,1,24.09-1.8c13.22,1.24,20.46,9.78,21.26,24.09.63,11.12.3,22.3.08,33.44,0,1.23-2.07,3.32-3.33,3.45C774.32,530.57,770,530.31,765.18,530.31Zm-2.28-25.24c-5.27.23-10.77-.05-16.06.85a6,6,0,0,0-3.18,10.36c3.06,3,9.53,3.28,14.56.64C762.7,514.56,764.14,511.27,762.9,505.07Z"/><path d="M796.74,530.32V507.64c0-11.16.17-22.33-.09-33.49-.09-4.07,1.4-5.41,5.19-5.09,2,.16,4,0,6,0,5.86,0,5.86,0,7,5.8,8.08-6.42,17.2-7.92,26.88-5.52,10.38,2.58,16.91,10.81,17.33,22.38s.07,23.33.2,35c0,3-1.36,3.69-4,3.61-3.49-.12-7-.17-10.49,0-3.11.16-4-1.17-4-4.12.11-9.34.07-18.67,0-28,0-9.14-3.86-13.77-11.36-14-8.26-.21-14,5.32-14.21,14q-.29,13.74,0,27.5c.06,3.5-1.19,4.74-4.65,4.56C806.24,530.15,801.92,530.32,796.74,530.32Z"/><path d="M532.93,562.36c-.35,1.43-.6,2.89-1.07,4.27-6.16,18.46-12.45,36.88-18.43,55.39-1.18,3.63-3.1,4.36-6.52,4.41-3.62.06-5.73-.72-7-4.56-4.48-13.92-9.34-27.72-14.06-41.57-.31-.92-.71-1.82-1.43-3.66-3.62,10.51-6.94,20.17-10.26,29.84-1.94,5.66-4,11.27-5.79,17-1.26,4-4.5,3-7,2.71-1.91-.22-4.79-1.42-5.29-2.87-6.84-19.61-13.34-39.34-19.89-59a6.49,6.49,0,0,1,0-1.92c8.62-1.8,9.18-1.49,11.84,6.51,4.72,14.2,9.45,28.39,14.57,43.77,3.67-10.55,7-20,10.26-29.5,2-5.82,4.2-11.58,5.91-17.48,1-3.53,3.13-4,6.3-4.06s4.67,1.23,5.65,4.21c4.67,14.21,9.53,28.35,14.34,42.52.37,1.08.8,2.15,1.57,4.21,1.41-4,2.55-7.24,3.63-10.46q5.76-17,11.48-34C524.19,560.78,524.43,560.64,532.93,562.36Z"/><path d="M578.75,530.3c-6.92,0-12.58.23-18.19-.14-1.61-.11-3.5-1.65-4.6-3.06-3.57-4.57-6.83-9.39-10.72-14.82-3.82,5.18-7.09,10.12-10.94,14.57a10.72,10.72,0,0,1-6.47,3.32c-4.89.5-9.85.15-16.06.15,3-4,5.18-7,7.45-10,4.45-5.82,8.79-11.72,13.45-17.37,2.11-2.56,1.93-4.33,0-6.86-5.53-7.08-10.8-14.37-16.14-21.59-1-1.31-1.83-2.69-3.53-5.21,7.09,0,13.12-.19,19.12.15,1.24.07,2.53,2,3.5,3.23,3.29,4.33,6.45,8.75,10.11,13.76,3.71-5,6.69-9.64,10.31-13.67a12.12,12.12,0,0,1,6.94-3.55c4.51-.56,9.13-.15,15.11-.15-2.83,3.89-4.7,6.54-6.66,9.12C567,484.05,562.64,490,558,495.63c-2.07,2.55-2,4.37,0,6.93,5.78,7.31,11.31,14.81,16.92,22.26C576,526.24,577,527.74,578.75,530.3Z"/><path d="M277.06,616c-10.88-24.4-21.77-48.79-32.88-73.7a41.66,41.66,0,0,1,4.31-.51c10.15,0,20.31.07,30.46-.08,3.06,0,4.88.86,6.14,3.79,1.83,4.24,4.44,8.16,6.17,12.44,2.14,5.3,3.75,10.83,5.54,16.28a2.37,2.37,0,0,1-.14,1.45c-4.58,12-8.69,24.19-15.53,35.19-.93,1.5-1.59,3.18-2.37,4.77Z"/><path d="M640.29,484.23c-2.23,1.3-4.32,2.3-6.19,3.64-4.32,3.11-7.7,4.05-12.05-.92-3.9-4.46-10-4-15.4-1.86-5.21,2.1-8,6.29-8.54,11.9-1.2,12.36,5.67,20.2,17,18.65,3.29-.45,6.71-2.75,9.22-5.1,2.15-2,3.48-2.39,5.86-.91,3.22,2,6.62,3.72,9.84,5.51-3,11-16.64,17.69-31.83,16-16.75-1.92-28-13.75-28.94-30.32-.83-15.14,9.85-28.37,25.59-31.7S635.44,471.88,640.29,484.23Z"/><path d="M205,530.27h-6.54c-40.64,0-81.29-.07-121.93.09-4.86,0-7.73-.77-6.83-6.4a9.54,9.54,0,0,0-.42-3.44c-.75-3.31.81-4.74,3.91-4.8,3.83-.07,7.66,0,11.49,0,34.81,0,69.63.24,104.44-.07,7.18-.07,11.31,2.36,13.3,9A51.53,51.53,0,0,0,205,530.27Z"/><path d="M704.52,617.76h36.4v8.06a27.08,27.08,0,0,1-3.7.48c-12.83,0-25.66-.1-38.49.1-3.77.06-4.88-1.27-4.86-4.91q.2-27.5,0-55c0-3.65,1.1-5,4.87-4.91,12.32.2,24.66.18,37,0,3.52-.05,4.58,1.17,4.57,4.62s-1.47,4.18-4.52,4.14c-10.29-.12-20.58,0-31.54,0,0,5.69-.23,10.81.19,15.88.09,1.08,2.55,2.73,4,2.79,6.82.3,13.67,0,20.49.22,3,.11,7.33-1.91,7.43,4.29s-4.06,4.47-7.18,4.53c-8.11.14-16.22,0-24.62,0Z"/><path d="M615.33,626.32c-2.42,0-4.06-.09-5.68,0-2.7.19-3.9-.8-3.89-3.69.07-20.3.11-40.6,0-60.9,0-4.11,2.37-3.89,5.19-4,3.09-.13,4.56.75,4.46,4.17-.2,6.62-.06,13.24-.06,18.87,6.17-1.36,12.1-3.54,18.12-3.8,10.39-.44,17.87,6.26,18.76,16.73.81,9.58.41,19.27.65,28.9.11,4.23-2.76,3.6-5.41,3.75-3.08.18-4.62-.75-4.55-4.15.15-7.49.08-15,0-22.46-.07-9.29-3.78-13.84-11.62-14.39-8.39-.6-14.12,4.06-15.47,12.77a55.32,55.32,0,0,0-.47,7.94C615.28,612.54,615.33,619,615.33,626.32Z"/><path d="M804.55,605.21c2.59,13.57,16.68,17,31.69,7.21.45.88,1,2.1,1.68,3.24s1.33,1.89,2.24,3.16c-6.71,7.49-15.09,9.24-24.46,7.71-10.51-1.72-17.84-7.59-20.42-18-2.38-9.58-.6-18.58,7.1-25.55,7.19-6.5,15.68-7.71,24.71-5.09,9.77,2.83,16.16,12.17,16.29,22.7,0,3.38-.92,4.71-4.49,4.66C827.6,605.09,816.3,605.21,804.55,605.21Zm29.11-7.61c-1.49-8.57-6.89-12.75-15.28-12.48-7.61.24-12.9,5-13.66,12.48Z"/><path d="M917.06,625.77c-.21-1.39-.43-2.83-.74-4.84-6.71,5.54-14.09,7.41-22.37,5.28-8-2.05-13.58-7.91-14.08-16.12-.59-9.62-.45-19.28-.73-28.93-.12-3.77,2-4.26,5.08-4.29s5,.72,4.9,4.43q-.21,12.23.12,24.47c.23,8.11,4.28,12.13,12,12.31,8.29.2,14-4.14,14.55-11.81.52-8,.39-16,.35-24,0-3.55.72-5.52,5-5.49,4.09,0,5.1,1.59,5,5.35-.16,12.15-.06,24.31-.06,36.47C926.07,627.08,925.86,627.25,917.06,625.77Z"/><path d="M786.75,581.62l-3,6c-5.94-.86-11.26-1.82-16.61-2.32a9,9,0,0,0-5.69,1.29,7.55,7.55,0,0,0-3,5.07c0,1.41,1.84,3.68,3.32,4.15,4.4,1.42,9,2.1,13.55,3.13,9.65,2.2,13.93,6.34,12.82,14.07a16.73,16.73,0,0,1-5.64,9.82c-8.4,6.68-26.59,5.3-35.43-2.25l3.27-6.33c4.66,1.33,9,2.92,13.48,3.73a19.8,19.8,0,0,0,9.29-.28c2.21-.71,4.9-3,5.46-5.13.93-3.52-2.59-4.55-5.33-5.25-5.62-1.43-11.53-2-16.9-4.07-9.2-3.49-10.84-15-3.44-21.54a17.85,17.85,0,0,1,3.69-2.52C764.51,575.12,778.49,576.09,786.75,581.62Z"/><path d="M592.72,616.93c4,6.53,3.53,7.74-3.29,9.47-11.42,2.9-19.95-3.33-20.43-15.2-.27-6.65,0-13.33-.08-20,0-1.79-.17-3.58-.27-5.61a30.14,30.14,0,0,0-4.22-.36c-2.92.16-3.74-1.31-3.67-4,.07-2.35.16-4.62,3.31-4.27,4.19.46,5.32-1.62,4.86-5.27-.5-3.9,1.12-5.11,5.07-5.2,4.35-.1,5.23,1.92,4.84,5.42-.44,4,1.41,5.42,5.22,5,1.65-.18,3.34.06,5,0,3.3-.16,3.77,1.87,3.79,4.51s-1.1,3.7-3.88,3.83c-10.11.46-10.11.56-10.1,11,0,4.66-.1,9.33,0,14,.26,7.54,4,10,11.22,7.64C590.92,617.59,591.68,617.3,592.72,616.93Z"/><path d="M864.07,626c-1.43.15-2.26.21-3.07.33-4.55.71-6.42-.69-6.34-5.81.31-19,.18-38,.08-57,0-3.61.23-5.84,4.94-5.87,5,0,4.68,2.74,4.67,6-.05,19,0,38,0,57C864.31,622.31,864.17,624,864.07,626Z"/><path d="M552,626c-1.57.14-2.87.19-4.14.37-3.89.55-5.18-1-5.11-5q.31-19.68,0-39.36c-.07-4,1.25-5.15,5.13-5.16,4,0,4.57,1.88,4.54,5.21-.13,13.12,0,26.24-.07,39.36C552.31,622.84,552.09,624.29,552,626Z"/><path d="M547.83,568.69c-3.42.11-6.7-2.88-6.46-6.19.26-3.65,2.34-5.85,6.1-5.9s6,1.87,6.46,5.55C554.34,565.44,551.26,568.59,547.83,568.69Z"/></svg>